<svg id="svg" version="1.1" xmlns="http://www.w3.org/2000/svg" xmlns:xlink="http://www.w3.org/1999/xlink" width="400" height="400" viewBox="0, 0, 400,400"><g id="svgg"><path id="path0" d="M122.358 0.208 C 122.220 0.347,121.525 0.425,120.283 0.441 C 118.006 0.470,116.497 0.636,116.176 0.891 C 115.991 1.040,115.965 1.036,116.061 0.875 C 116.148 0.730,116.057 0.667,115.760 0.667 C 115.525 0.667,115.333 0.724,115.333 0.795 C 115.333 0.865,114.767 0.895,114.075 0.860 C 113.062 0.808,112.756 0.851,112.503 1.080 C 112.279 1.283,112.045 1.333,111.686 1.254 C 111.344 1.179,110.939 1.252,110.419 1.482 C 109.999 1.667,109.700 1.748,109.754 1.660 C 109.809 1.572,109.778 1.500,109.686 1.500 C 109.595 1.500,109.478 1.567,109.428 1.649 C 109.316 1.829,108.200 1.996,107.151 1.990 C 106.693 1.988,106.308 2.080,106.192 2.220 C 106.075 2.361,105.823 2.420,105.558 2.369 C 105.306 2.321,105.159 2.352,105.214 2.441 C 105.269 2.531,105.059 2.568,104.715 2.528 C 104.291 2.478,104.077 2.534,103.971 2.724 C 103.865 2.914,103.683 2.962,103.328 2.891 C 103.002 2.825,102.833 2.859,102.833 2.989 C 102.833 3.098,102.920 3.133,103.026 3.067 C 103.132 3.001,103.173 3.021,103.118 3.111 C 103.062 3.201,102.737 3.252,102.395 3.225 C 102.053 3.198,101.681 3.252,101.569 3.345 C 101.457 3.438,101.181 3.468,100.955 3.411 C 100.662 3.338,100.515 3.387,100.440 3.582 C 100.371 3.763,100.226 3.822,100.015 3.755 C 99.655 3.641,98.800 3.811,98.901 3.976 C 98.937 4.035,98.659 4.101,98.284 4.124 C 97.910 4.146,97.527 4.239,97.435 4.332 C 97.342 4.424,97.126 4.500,96.955 4.500 C 96.783 4.500,96.534 4.609,96.400 4.743 C 96.266 4.877,96.047 4.943,95.912 4.892 C 95.777 4.840,95.667 4.876,95.667 4.972 C 95.667 5.077,95.438 5.109,95.083 5.051 C 94.635 4.978,94.500 5.014,94.500 5.205 C 94.500 5.380,94.377 5.430,94.083 5.374 C 93.830 5.326,93.667 5.371,93.667 5.490 C 93.667 5.598,93.753 5.633,93.859 5.567 C 93.970 5.499,94.007 5.521,93.946 5.619 C 93.888 5.713,93.617 5.764,93.344 5.733 C 93.071 5.701,92.801 5.751,92.743 5.844 C 92.686 5.937,92.495 5.968,92.319 5.912 C 92.101 5.843,92.000 5.890,92.000 6.062 C 92.000 6.217,91.857 6.305,91.625 6.293 C 90.729 6.244,90.299 6.336,90.384 6.557 C 90.444 6.716,90.358 6.760,90.088 6.708 C 89.878 6.668,89.655 6.717,89.593 6.818 C 89.531 6.918,89.297 7.000,89.073 7.000 C 88.850 7.000,88.667 7.068,88.667 7.152 C 88.667 7.236,88.361 7.356,87.988 7.419 C 87.615 7.482,87.270 7.638,87.221 7.766 C 87.172 7.893,87.068 7.959,86.990 7.911 C 86.787 7.785,85.987 8.010,86.083 8.166 C 86.127 8.237,86.070 8.292,85.957 8.288 C 85.174 8.260,84.850 8.350,84.935 8.571 C 85.003 8.748,84.932 8.784,84.654 8.712 C 84.413 8.649,84.320 8.677,84.391 8.792 C 84.459 8.902,84.381 8.938,84.186 8.887 C 84.013 8.841,83.821 8.886,83.759 8.985 C 83.697 9.085,83.509 9.167,83.341 9.167 C 83.173 9.167,82.993 9.278,82.941 9.414 C 82.889 9.550,82.738 9.620,82.607 9.569 C 82.475 9.519,82.318 9.557,82.257 9.655 C 82.197 9.753,81.997 9.833,81.814 9.833 C 81.630 9.833,81.526 9.907,81.582 9.998 C 81.642 10.096,81.569 10.119,81.401 10.054 C 81.240 9.992,81.039 10.047,80.934 10.181 C 80.833 10.311,80.563 10.438,80.333 10.463 C 80.104 10.489,79.892 10.583,79.861 10.672 C 79.831 10.761,79.698 10.833,79.567 10.833 C 79.436 10.833,79.199 10.906,79.039 10.994 C 78.880 11.083,78.394 11.309,77.958 11.498 C 77.523 11.687,77.167 11.912,77.167 11.999 C 77.167 12.085,77.064 12.117,76.938 12.069 C 76.813 12.020,76.663 12.102,76.606 12.251 C 76.549 12.400,76.427 12.475,76.335 12.418 C 76.106 12.276,73.835 13.367,73.834 13.620 C 73.834 13.741,73.721 13.780,73.556 13.716 C 73.392 13.654,73.321 13.678,73.381 13.776 C 73.438 13.867,73.320 13.936,73.117 13.929 C 72.896 13.922,72.768 14.005,72.796 14.137 C 72.821 14.259,72.765 14.310,72.670 14.252 C 72.500 14.147,70.801 14.969,70.694 15.208 C 70.664 15.277,70.495 15.333,70.319 15.333 C 70.144 15.333,70.000 15.402,70.000 15.487 C 70.000 15.571,69.790 15.686,69.532 15.743 C 69.275 15.799,68.959 15.993,68.829 16.173 C 68.699 16.353,68.460 16.500,68.297 16.500 C 68.133 16.500,68.000 16.575,68.000 16.667 C 68.000 16.758,67.887 16.833,67.750 16.833 C 67.612 16.833,67.500 16.906,67.500 16.995 C 67.500 17.084,67.400 17.118,67.277 17.071 C 67.154 17.023,66.957 17.101,66.840 17.242 C 66.722 17.384,66.523 17.500,66.396 17.500 C 66.270 17.500,66.167 17.575,66.167 17.667 C 66.167 17.758,66.054 17.833,65.917 17.833 C 65.779 17.833,65.667 17.908,65.667 18.000 C 65.667 18.092,65.550 18.167,65.407 18.167 C 65.264 18.167,65.193 18.241,65.249 18.331 C 65.307 18.425,65.241 18.454,65.096 18.399 C 64.819 18.292,64.279 18.724,64.461 18.906 C 64.523 18.967,64.452 18.971,64.304 18.914 C 64.139 18.851,63.947 18.936,63.809 19.133 C 63.586 19.452,63.500 19.500,63.157 19.500 C 63.060 19.500,63.034 19.587,63.099 19.692 C 63.171 19.809,63.145 19.840,63.033 19.770 C 62.822 19.640,62.221 19.939,61.816 20.375 C 61.666 20.535,61.455 20.667,61.346 20.667 C 61.236 20.667,61.201 20.753,61.266 20.859 C 61.337 20.974,61.312 21.006,61.204 20.940 C 60.974 20.797,59.500 21.677,59.500 21.957 C 59.500 22.072,59.444 22.158,59.375 22.147 C 58.929 22.076,58.641 22.192,58.724 22.408 C 58.786 22.570,58.736 22.619,58.575 22.557 C 58.442 22.506,58.333 22.547,58.333 22.649 C 58.333 22.750,58.221 22.833,58.083 22.833 C 57.946 22.833,57.833 22.903,57.833 22.989 C 57.833 23.074,57.668 23.197,57.466 23.261 C 56.968 23.419,56.709 23.702,56.791 24.001 C 56.848 24.211,56.833 24.213,56.694 24.015 C 56.554 23.814,56.493 23.817,56.273 24.036 C 56.132 24.178,56.069 24.346,56.133 24.411 C 56.197 24.475,56.175 24.513,56.083 24.494 C 55.731 24.423,55.485 24.507,55.582 24.665 C 55.641 24.759,55.574 24.787,55.425 24.730 C 55.283 24.676,55.167 24.698,55.167 24.780 C 55.167 24.861,54.940 25.062,54.664 25.225 C 54.383 25.391,54.210 25.603,54.273 25.704 C 54.335 25.805,54.308 25.838,54.212 25.778 C 54.117 25.719,53.824 25.833,53.561 26.031 C 52.939 26.499,52.670 26.760,53.000 26.576 C 53.215 26.455,53.218 26.475,53.021 26.718 C 52.774 27.023,52.582 27.105,52.750 26.833 C 52.895 26.599,52.686 26.626,52.425 26.875 C 52.305 26.990,52.052 27.191,51.863 27.322 C 51.673 27.453,51.563 27.634,51.618 27.723 C 51.673 27.812,51.634 27.833,51.532 27.770 C 51.429 27.706,51.198 27.802,51.017 27.983 C 50.837 28.163,50.497 28.437,50.263 28.590 C 50.028 28.744,49.885 28.948,49.944 29.044 C 50.003 29.140,49.975 29.171,49.881 29.113 C 49.787 29.054,49.531 29.164,49.313 29.355 C 49.095 29.546,48.654 29.929,48.333 30.206 C 48.012 30.482,47.862 30.650,48.000 30.578 C 48.137 30.505,48.192 30.511,48.120 30.589 C 48.049 30.668,47.885 30.747,47.756 30.766 C 47.627 30.785,47.348 30.958,47.136 31.151 C 46.923 31.344,46.464 31.758,46.114 32.072 C 45.764 32.386,45.464 32.705,45.447 32.780 C 45.430 32.855,45.363 32.899,45.297 32.877 C 45.231 32.855,44.884 33.117,44.526 33.460 C 44.167 33.803,43.265 34.635,42.521 35.308 C 41.777 35.982,41.217 36.612,41.276 36.709 C 41.339 36.810,41.305 36.836,41.198 36.770 C 40.992 36.642,36.459 41.132,36.586 41.337 C 36.628 41.406,36.533 41.564,36.373 41.689 C 36.105 41.900,36.102 41.892,36.330 41.583 C 36.575 41.254,36.573 41.254,36.209 41.564 C 36.007 41.737,35.882 41.945,35.933 42.026 C 35.983 42.108,35.963 42.156,35.887 42.134 C 35.740 42.089,34.399 43.487,32.659 45.500 C 31.310 47.060,31.021 47.434,31.292 47.272 C 31.406 47.203,31.500 47.226,31.500 47.323 C 31.500 47.421,31.395 47.500,31.267 47.500 C 31.140 47.500,30.858 47.695,30.642 47.934 C 30.427 48.172,30.116 48.512,29.952 48.690 C 29.788 48.867,29.702 49.089,29.761 49.184 C 29.819 49.278,29.709 49.397,29.517 49.447 C 29.324 49.498,29.166 49.586,29.166 49.644 C 29.166 49.702,28.941 50.012,28.667 50.333 C 28.392 50.654,28.167 50.959,28.167 51.011 C 28.167 51.063,27.904 51.401,27.583 51.761 C 27.263 52.122,26.994 52.604,26.987 52.833 C 26.980 53.063,26.936 53.157,26.890 53.043 C 26.827 52.886,26.747 52.896,26.559 53.084 C 26.423 53.220,26.356 53.401,26.409 53.487 C 26.462 53.573,26.418 53.698,26.310 53.764 C 26.178 53.846,26.158 53.809,26.249 53.651 C 26.431 53.332,26.153 53.622,25.697 54.228 C 25.500 54.491,25.386 54.784,25.445 54.879 C 25.503 54.974,25.473 55.003,25.377 54.944 C 25.192 54.829,24.611 55.595,24.611 55.953 C 24.611 56.071,24.511 56.167,24.389 56.167 C 24.267 56.167,24.167 56.247,24.167 56.345 C 24.167 56.443,24.053 56.637,23.915 56.775 C 23.777 56.914,23.713 57.107,23.774 57.206 C 23.835 57.304,23.817 57.346,23.734 57.298 C 23.651 57.251,23.333 57.585,23.028 58.041 C 22.722 58.497,22.565 58.813,22.679 58.743 C 22.811 58.661,22.842 58.684,22.766 58.808 C 22.701 58.913,22.539 59.000,22.407 59.000 C 22.275 59.000,22.167 59.080,22.167 59.178 C 22.167 59.276,21.973 59.610,21.736 59.921 C 21.499 60.231,21.350 60.559,21.405 60.648 C 21.460 60.737,21.418 60.865,21.310 60.931 C 21.188 61.006,21.160 60.979,21.234 60.859 C 21.299 60.753,21.322 60.667,21.285 60.667 C 21.098 60.667,20.179 62.387,20.275 62.555 C 20.337 62.662,20.328 62.697,20.257 62.633 C 20.063 62.458,19.620 62.972,19.727 63.249 C 19.777 63.381,19.735 63.541,19.634 63.604 C 19.515 63.677,19.492 63.634,19.570 63.484 C 19.637 63.355,19.572 63.398,19.425 63.579 C 19.279 63.759,19.202 64.019,19.255 64.157 C 19.308 64.294,19.299 64.355,19.236 64.292 C 19.057 64.113,18.124 65.627,18.264 65.870 C 18.332 65.988,18.325 66.028,18.250 65.959 C 18.061 65.788,17.620 66.456,17.766 66.693 C 17.840 66.812,17.812 66.840,17.692 66.766 C 17.578 66.695,17.500 66.753,17.500 66.907 C 17.500 67.050,17.437 67.167,17.361 67.167 C 17.152 67.167,16.287 68.957,16.404 69.146 C 16.460 69.237,16.346 69.422,16.151 69.559 C 15.936 69.710,15.847 69.887,15.924 70.012 C 16.006 70.145,15.983 70.176,15.858 70.098 C 15.646 69.967,15.311 70.646,15.462 70.901 C 15.511 70.984,15.465 70.998,15.359 70.933 C 15.251 70.866,15.167 70.910,15.167 71.035 C 15.167 71.156,14.979 71.532,14.749 71.870 C 14.520 72.208,14.314 72.655,14.291 72.864 C 14.269 73.072,14.082 73.402,13.878 73.596 C 13.673 73.791,13.546 73.990,13.595 74.040 C 13.644 74.089,13.378 74.715,13.004 75.430 C 12.629 76.146,12.366 76.846,12.420 76.985 C 12.474 77.125,12.465 77.187,12.400 77.122 C 12.289 77.011,12.034 77.395,11.785 78.050 C 11.717 78.229,11.736 78.310,11.833 78.250 C 11.926 78.193,11.953 78.261,11.897 78.408 C 11.842 78.550,11.697 78.667,11.573 78.667 C 11.448 78.667,11.300 78.926,11.239 79.250 C 11.179 79.571,11.063 79.833,10.981 79.833 C 10.900 79.833,10.833 79.979,10.833 80.157 C 10.833 80.335,10.758 80.527,10.667 80.583 C 10.575 80.640,10.500 80.832,10.500 81.010 C 10.500 81.188,10.416 81.333,10.314 81.333 C 10.206 81.333,10.161 81.506,10.206 81.745 C 10.255 82.000,10.220 82.116,10.114 82.051 C 10.012 81.988,9.984 82.052,10.044 82.209 C 10.104 82.363,10.042 82.512,9.896 82.568 C 9.758 82.621,9.689 82.735,9.742 82.821 C 9.795 82.907,9.763 83.024,9.669 83.082 C 9.576 83.139,9.500 83.332,9.500 83.510 C 9.500 83.688,9.416 83.833,9.314 83.833 C 9.204 83.833,9.158 84.030,9.200 84.316 C 9.248 84.642,9.206 84.774,9.072 84.723 C 8.946 84.674,8.833 84.921,8.760 85.407 C 8.698 85.825,8.567 86.167,8.470 86.167 C 8.374 86.167,8.334 86.317,8.382 86.500 C 8.430 86.683,8.404 86.833,8.326 86.833 C 8.101 86.833,7.662 87.878,7.621 88.511 C 7.600 88.826,7.490 89.158,7.377 89.250 C 7.263 89.342,7.143 89.664,7.111 89.965 C 7.079 90.267,6.966 90.601,6.860 90.707 C 6.754 90.813,6.667 90.999,6.667 91.119 C 6.667 91.239,6.601 91.468,6.520 91.627 C 6.175 92.308,5.807 93.691,5.903 93.942 C 5.961 94.092,5.901 94.335,5.770 94.482 C 5.484 94.803,5.079 96.124,5.133 96.564 C 5.153 96.736,5.046 96.969,4.893 97.080 C 4.691 97.227,4.643 97.424,4.717 97.793 C 4.786 98.141,4.748 98.330,4.597 98.388 C 4.475 98.435,4.321 98.836,4.255 99.278 C 4.189 99.721,4.077 100.158,4.005 100.250 C 3.934 100.342,3.834 100.642,3.785 100.917 C 3.735 101.192,3.610 101.744,3.508 102.144 C 3.406 102.544,3.368 103.032,3.422 103.228 C 3.493 103.479,3.476 103.517,3.366 103.358 C 3.175 103.083,2.911 104.887,3.097 105.190 C 3.170 105.307,3.146 105.340,3.038 105.273 C 2.803 105.128,2.652 105.627,2.582 106.780 C 2.551 107.291,2.444 107.789,2.346 107.887 C 2.095 108.138,2.108 109.223,2.359 109.067 C 2.479 108.993,2.506 109.022,2.431 109.144 C 2.365 109.251,2.243 109.297,2.160 109.246 C 1.936 109.108,1.800 109.840,1.773 111.318 C 1.761 112.042,1.696 112.601,1.630 112.560 C 1.436 112.441,1.296 113.257,1.358 114.145 C 1.390 114.598,1.357 114.932,1.285 114.887 C 1.213 114.842,1.200 115.018,1.257 115.278 C 1.325 115.591,1.308 115.676,1.205 115.531 C 1.002 115.243,0.818 117.148,0.952 118.151 C 1.021 118.663,0.995 118.850,0.867 118.771 C 0.593 118.602,0.441 119.688,0.546 121.062 C 0.600 121.769,0.580 122.115,0.497 121.917 C 0.311 121.474,0.325 121.348,0.196 124.667 C 0.006 129.570,0.103 143.750,0.331 144.500 C 0.345 144.546,0.421 144.433,0.500 144.250 C 0.637 143.932,0.644 143.934,0.655 144.292 C 0.661 144.498,0.609 144.667,0.539 144.667 C 0.437 144.667,0.479 145.714,0.656 147.583 C 0.665 147.675,0.735 147.651,0.811 147.530 C 0.892 147.403,0.953 148.011,0.956 148.964 C 0.962 150.606,1.084 151.404,1.307 151.266 C 1.371 151.227,1.395 151.490,1.360 151.851 C 1.279 152.705,1.468 153.706,1.686 153.572 C 1.793 153.505,1.820 153.669,1.760 154.025 C 1.633 154.776,1.885 156.924,2.096 156.887 C 2.192 156.869,2.235 157.102,2.196 157.436 C 2.152 157.814,2.222 158.118,2.398 158.313 C 2.546 158.476,2.622 158.656,2.567 158.711 C 2.417 158.861,2.675 160.514,2.833 160.417 C 2.908 160.371,2.927 160.495,2.875 160.692 C 2.811 160.937,2.842 161.014,2.972 160.934 C 3.096 160.857,3.128 160.907,3.063 161.077 C 2.930 161.422,3.151 162.863,3.320 162.758 C 3.392 162.713,3.417 162.858,3.375 163.081 C 3.305 163.444,3.644 164.879,4.005 165.750 C 4.081 165.933,4.190 166.383,4.247 166.750 C 4.401 167.738,4.506 168.016,4.683 167.907 C 4.779 167.847,4.799 168.073,4.733 168.488 C 4.644 169.042,4.673 169.167,4.889 169.167 C 5.069 169.167,5.150 169.313,5.141 169.625 C 5.126 170.220,5.491 171.536,5.730 171.750 C 5.833 171.842,5.925 172.168,5.935 172.476 C 5.946 172.784,6.021 173.084,6.102 173.143 C 6.183 173.202,6.271 173.475,6.296 173.750 C 6.339 174.216,6.495 174.669,6.853 175.373 C 6.934 175.532,7.000 175.780,7.000 175.924 C 7.000 176.068,7.068 176.144,7.151 176.093 C 7.234 176.042,7.260 176.161,7.209 176.358 C 7.148 176.590,7.218 176.792,7.407 176.931 C 7.568 177.048,7.653 177.221,7.595 177.315 C 7.449 177.551,7.669 178.352,7.849 178.240 C 7.930 178.190,7.947 178.278,7.886 178.435 C 7.816 178.618,7.842 178.681,7.956 178.610 C 8.068 178.541,8.105 178.615,8.055 178.806 C 8.011 178.975,8.126 179.382,8.311 179.710 C 8.496 180.039,8.697 180.576,8.759 180.904 C 8.820 181.232,8.937 181.500,9.019 181.500 C 9.100 181.500,9.167 181.635,9.167 181.800 C 9.167 182.167,9.538 182.997,9.703 182.999 C 9.769 182.999,9.780 183.112,9.727 183.249 C 9.675 183.385,9.734 183.536,9.858 183.584 C 9.982 183.632,10.098 183.886,10.117 184.149 C 10.135 184.412,10.304 184.901,10.492 185.235 C 10.680 185.570,10.833 185.954,10.833 186.088 C 10.833 186.223,10.905 186.333,10.992 186.333 C 11.080 186.333,11.201 186.596,11.261 186.917 C 11.321 187.237,11.456 187.500,11.560 187.500 C 11.665 187.500,11.762 187.702,11.776 187.949 C 11.790 188.196,11.909 188.477,12.041 188.574 C 12.172 188.671,12.248 188.844,12.209 188.958 C 12.171 189.073,12.253 189.210,12.392 189.264 C 12.532 189.317,12.607 189.461,12.560 189.584 C 12.452 189.865,12.801 190.540,12.993 190.421 C 13.071 190.373,13.096 190.483,13.048 190.666 C 13.000 190.853,13.043 191.000,13.147 191.000 C 13.250 191.000,13.333 191.152,13.333 191.339 C 13.333 191.525,13.445 191.720,13.582 191.773 C 13.719 191.825,13.794 191.929,13.749 192.002 C 13.624 192.204,13.846 192.678,14.016 192.574 C 14.097 192.524,14.113 192.611,14.053 192.769 C 13.973 192.978,14.002 193.018,14.164 192.918 C 14.304 192.832,14.345 192.847,14.275 192.959 C 14.120 193.211,14.333 193.686,14.543 193.557 C 14.639 193.497,14.675 193.518,14.623 193.602 C 14.494 193.811,15.074 195.037,15.228 194.883 C 15.296 194.815,15.302 194.888,15.242 195.045 C 15.172 195.228,15.228 195.367,15.398 195.433 C 15.545 195.489,15.618 195.610,15.561 195.703 C 15.504 195.795,15.526 195.918,15.609 195.977 C 15.693 196.035,16.021 196.608,16.339 197.250 C 16.657 197.892,16.960 198.454,17.012 198.500 C 17.065 198.546,17.158 198.719,17.219 198.886 C 17.281 199.052,17.388 199.153,17.457 199.110 C 17.527 199.067,17.594 199.210,17.607 199.427 C 17.620 199.644,17.751 199.942,17.899 200.089 C 18.046 200.237,18.167 200.431,18.167 200.522 C 18.167 200.612,18.241 200.641,18.331 200.585 C 18.429 200.525,18.452 200.597,18.389 200.762 C 18.323 200.935,18.387 201.100,18.558 201.196 C 18.709 201.280,18.833 201.459,18.833 201.592 C 18.833 201.725,18.908 201.833,19.000 201.833 C 19.092 201.833,19.167 201.953,19.167 202.099 C 19.167 202.455,19.755 203.186,19.921 203.036 C 19.994 202.970,20.008 202.996,19.953 203.094 C 19.820 203.327,20.401 204.206,20.581 204.043 C 20.657 203.974,20.666 204.010,20.600 204.125 C 20.456 204.376,20.890 205.049,21.083 204.874 C 21.159 204.806,21.166 204.844,21.100 204.959 C 20.980 205.168,21.481 206.019,22.008 206.500 C 22.158 206.637,22.249 206.844,22.210 206.958 C 22.171 207.073,22.258 207.167,22.403 207.167 C 22.548 207.167,22.648 207.236,22.625 207.322 C 22.602 207.407,22.733 207.600,22.917 207.751 C 23.100 207.901,23.157 207.978,23.044 207.920 C 22.908 207.852,22.871 207.904,22.936 208.075 C 22.991 208.217,23.138 208.333,23.263 208.333 C 23.396 208.333,23.450 208.437,23.394 208.583 C 23.331 208.748,23.399 208.833,23.593 208.833 C 23.756 208.833,23.841 208.881,23.782 208.940 C 23.658 209.064,24.176 210.000,24.369 210.000 C 24.441 210.000,24.500 210.076,24.500 210.168 C 24.500 210.433,25.515 211.755,25.683 211.708 C 25.766 211.685,25.824 211.723,25.814 211.792 C 25.742 212.245,25.858 212.526,26.081 212.440 C 26.218 212.388,26.321 212.399,26.312 212.464 C 26.261 212.805,26.360 213.000,26.583 213.000 C 26.721 213.000,26.821 213.056,26.807 213.125 C 26.754 213.373,27.039 213.829,27.188 213.737 C 27.273 213.685,27.321 213.704,27.297 213.779 C 27.234 213.973,27.952 215.097,28.540 215.723 C 28.813 216.013,29.258 216.550,29.530 216.917 C 29.802 217.283,30.105 217.583,30.205 217.583 C 30.304 217.583,30.403 217.705,30.424 217.853 C 30.463 218.118,30.774 218.523,31.733 219.561 C 31.998 219.848,32.111 219.933,31.983 219.750 C 31.769 219.444,31.774 219.435,32.040 219.644 C 32.199 219.769,32.296 219.926,32.254 219.994 C 32.103 220.238,33.045 221.194,33.211 220.964 C 33.327 220.803,33.345 220.813,33.285 221.006 C 33.239 221.152,33.492 221.583,33.873 222.006 C 34.241 222.415,34.439 222.600,34.313 222.417 C 34.101 222.109,34.106 222.101,34.379 222.315 C 34.542 222.443,34.638 222.584,34.593 222.629 C 34.409 222.813,36.027 224.479,36.304 224.391 C 36.492 224.331,36.518 224.350,36.383 224.447 C 36.240 224.552,36.371 224.780,36.848 225.255 C 37.214 225.619,37.717 226.137,37.965 226.407 C 39.157 227.700,41.216 229.577,41.389 229.528 C 41.496 229.497,41.526 229.530,41.456 229.600 C 41.385 229.670,41.895 230.276,42.588 230.947 C 43.802 232.122,44.159 232.399,43.895 231.958 C 43.809 231.817,43.860 231.823,44.051 231.979 C 44.206 232.105,44.333 232.281,44.333 232.370 C 44.333 232.644,45.356 233.506,45.543 233.390 C 45.639 233.331,45.672 233.357,45.615 233.449 C 45.484 233.661,46.358 234.509,46.771 234.569 C 46.943 234.595,47.083 234.695,47.083 234.792 C 47.083 235.044,47.931 235.680,48.075 235.536 C 48.141 235.470,48.169 235.502,48.139 235.607 C 48.069 235.844,48.824 236.525,49.022 236.403 C 49.101 236.354,49.167 236.423,49.167 236.556 C 49.167 236.793,49.615 237.083,49.887 237.022 C 49.963 237.006,49.983 237.060,49.931 237.144 C 49.809 237.340,50.233 237.693,50.517 237.631 C 50.637 237.605,50.738 237.683,50.742 237.805 C 50.752 238.083,51.332 238.521,51.529 238.399 C 51.609 238.349,51.654 238.400,51.629 238.512 C 51.578 238.740,52.843 239.680,53.040 239.559 C 53.110 239.516,53.167 239.579,53.167 239.700 C 53.167 239.821,53.325 240.018,53.517 240.139 C 53.808 240.320,53.848 240.320,53.749 240.137 C 53.684 240.016,53.813 240.135,54.037 240.402 C 54.308 240.724,54.519 240.841,54.665 240.751 C 54.804 240.665,54.845 240.680,54.775 240.793 C 54.640 241.011,55.985 242.029,56.218 241.885 C 56.312 241.827,56.333 241.865,56.266 241.974 C 56.154 242.156,56.378 242.248,56.750 242.173 C 56.842 242.154,56.860 242.196,56.790 242.265 C 56.645 242.411,57.499 243.020,57.686 242.904 C 57.755 242.862,57.865 242.916,57.931 243.023 C 58.011 243.152,57.973 243.177,57.817 243.097 C 57.689 243.030,57.733 243.091,57.917 243.232 C 58.100 243.373,58.345 243.570,58.460 243.670 C 58.576 243.769,58.745 243.805,58.835 243.749 C 58.926 243.693,59.000 243.764,59.000 243.907 C 59.000 244.050,59.070 244.167,59.155 244.167 C 59.240 244.167,59.427 244.284,59.570 244.427 C 59.713 244.570,59.978 244.698,60.158 244.712 C 60.338 244.725,60.453 244.769,60.413 244.810 C 60.300 244.922,61.022 245.500,61.276 245.500 C 61.399 245.500,61.500 245.575,61.500 245.667 C 61.500 245.758,61.607 245.833,61.738 245.833 C 61.869 245.833,62.093 245.951,62.237 246.094 C 62.380 246.237,62.573 246.308,62.665 246.251 C 62.758 246.194,62.833 246.247,62.833 246.369 C 62.833 246.640,63.912 247.244,64.339 247.212 C 64.558 247.196,64.618 247.266,64.545 247.457 C 64.468 247.656,64.513 247.697,64.719 247.618 C 64.890 247.553,64.981 247.589,64.956 247.714 C 64.935 247.826,65.079 247.917,65.277 247.917 C 65.475 247.917,65.700 247.985,65.777 248.068 C 65.858 248.157,65.830 248.170,65.708 248.100 C 65.594 248.034,65.500 248.054,65.500 248.144 C 65.500 248.233,65.725 248.356,66.000 248.417 C 66.275 248.477,66.500 248.604,66.500 248.698 C 66.500 248.792,66.616 248.824,66.759 248.770 C 66.908 248.712,66.974 248.741,66.915 248.837 C 66.806 249.012,67.495 249.346,67.708 249.221 C 67.777 249.180,67.833 249.264,67.833 249.407 C 67.833 249.550,67.903 249.667,67.989 249.667 C 68.075 249.667,68.356 249.747,68.614 249.845 C 68.872 249.943,69.114 250.011,69.152 249.997 C 69.189 249.982,69.287 250.089,69.368 250.235 C 69.450 250.381,69.630 250.500,69.768 250.500 C 69.906 250.500,69.973 250.575,69.917 250.667 C 69.823 250.819,70.088 250.898,70.625 250.878 C 70.740 250.874,70.833 250.983,70.833 251.121 C 70.833 251.298,70.955 251.349,71.245 251.294 C 71.471 251.250,71.617 251.279,71.569 251.357 C 71.521 251.435,71.692 251.591,71.949 251.704 C 72.206 251.817,72.473 251.986,72.542 252.080 C 72.622 252.189,72.726 252.160,72.831 252.000 C 72.970 251.788,72.995 251.795,72.997 252.052 C 72.999 252.217,73.076 252.306,73.168 252.249 C 73.260 252.192,73.381 252.263,73.436 252.406 C 73.491 252.549,73.678 252.667,73.851 252.667 C 74.025 252.667,74.167 252.742,74.167 252.833 C 74.167 252.925,74.284 253.000,74.427 253.000 C 74.587 253.000,74.641 252.921,74.566 252.792 C 74.497 252.671,74.510 252.642,74.598 252.722 C 74.682 252.799,74.750 252.940,74.750 253.036 C 74.750 253.296,75.497 253.541,75.511 253.286 C 75.516 253.175,75.592 253.261,75.679 253.477 C 75.793 253.761,75.929 253.847,76.169 253.785 C 76.351 253.737,76.465 253.755,76.422 253.825 C 76.319 253.992,77.147 254.365,77.347 254.242 C 77.432 254.189,77.549 254.267,77.606 254.416 C 77.663 254.564,77.806 254.649,77.924 254.603 C 78.042 254.558,78.184 254.637,78.238 254.779 C 78.299 254.938,78.463 255.005,78.663 254.953 C 78.851 254.904,78.973 254.946,78.953 255.052 C 78.933 255.154,79.198 255.310,79.542 255.398 C 79.885 255.486,80.167 255.621,80.167 255.696 C 80.167 255.772,80.280 255.833,80.419 255.833 C 80.558 255.833,80.801 255.906,80.961 255.994 C 81.578 256.337,82.827 256.833,83.074 256.833 C 83.217 256.833,83.333 256.908,83.333 257.000 C 83.333 257.092,83.479 257.167,83.657 257.167 C 83.835 257.167,84.031 257.249,84.093 257.349 C 84.155 257.449,84.382 257.498,84.598 257.456 C 84.839 257.410,84.949 257.447,84.884 257.552 C 84.819 257.657,84.889 257.681,85.065 257.614 C 85.222 257.553,85.310 257.569,85.261 257.649 C 85.211 257.730,85.488 257.905,85.877 258.040 C 86.265 258.175,86.727 258.347,86.902 258.421 C 87.127 258.517,87.186 258.500,87.102 258.364 C 87.024 258.238,87.072 258.205,87.240 258.269 C 87.382 258.324,87.462 258.427,87.417 258.500 C 87.315 258.664,88.125 258.879,88.341 258.745 C 88.428 258.691,88.500 258.755,88.500 258.888 C 88.500 259.046,88.759 259.168,89.250 259.241 C 89.662 259.303,90.000 259.429,90.000 259.522 C 90.000 259.614,90.169 259.665,90.375 259.635 C 90.581 259.605,90.825 259.673,90.917 259.787 C 91.008 259.900,91.346 260.013,91.667 260.038 C 91.987 260.063,92.356 260.184,92.485 260.306 C 92.614 260.429,92.895 260.495,93.110 260.454 C 93.359 260.407,93.500 260.459,93.500 260.599 C 93.500 260.745,93.666 260.796,94.003 260.754 C 94.285 260.718,94.463 260.758,94.409 260.845 C 94.357 260.930,94.501 261.000,94.730 261.000 C 94.959 261.000,95.193 261.075,95.250 261.167 C 95.307 261.258,95.541 261.333,95.770 261.333 C 96.042 261.333,96.145 261.400,96.068 261.525 C 95.982 261.664,96.143 261.691,96.641 261.625 C 97.108 261.562,97.298 261.589,97.224 261.709 C 97.154 261.822,97.245 261.852,97.477 261.791 C 97.684 261.737,97.940 261.797,98.074 261.932 C 98.204 262.061,98.498 262.167,98.728 262.167 C 98.959 262.167,99.198 262.249,99.260 262.349 C 99.322 262.450,99.585 262.501,99.844 262.463 C 100.128 262.421,100.275 262.459,100.214 262.558 C 100.152 262.658,100.231 262.678,100.413 262.608 C 100.599 262.537,100.832 262.598,101.020 262.768 C 101.231 262.959,101.480 263.012,101.835 262.941 C 102.179 262.872,102.373 262.910,102.429 263.056 C 102.481 263.190,102.696 263.247,102.987 263.204 C 103.247 263.166,103.511 263.217,103.573 263.317 C 103.636 263.418,103.940 263.500,104.250 263.500 C 104.560 263.500,104.864 263.582,104.927 263.683 C 104.989 263.783,105.293 263.836,105.603 263.799 C 106.006 263.752,106.167 263.800,106.167 263.967 C 106.167 264.140,106.355 264.185,106.901 264.142 C 107.312 264.109,107.594 264.150,107.542 264.234 C 107.488 264.320,107.673 264.340,107.969 264.281 C 108.352 264.205,108.529 264.248,108.639 264.445 C 108.757 264.656,108.973 264.696,109.650 264.631 C 110.123 264.585,110.550 264.612,110.598 264.691 C 110.647 264.769,111.015 264.833,111.417 264.833 C 111.818 264.833,112.195 264.911,112.254 265.007 C 112.313 265.102,112.503 265.135,112.676 265.080 C 112.850 265.025,113.249 265.103,113.565 265.252 C 113.982 265.450,114.348 265.493,114.903 265.410 C 115.458 265.327,115.667 265.351,115.667 265.501 C 115.667 265.633,115.825 265.675,116.114 265.620 C 116.360 265.573,116.899 265.636,117.312 265.760 C 117.725 265.885,118.730 265.985,119.545 265.984 C 120.379 265.983,121.123 266.062,121.247 266.165 C 121.380 266.274,122.022 266.328,122.859 266.299 C 123.940 266.261,124.293 266.306,124.445 266.500 C 124.617 266.721,130.193 266.756,172.487 266.800 L 220.333 266.849 220.333 133.425 L 220.333 0.000 171.450 0.000 C 132.566 0.000,122.524 0.043,122.358 0.208 M242.172 133.125 C 242.176 242.550,242.216 266.301,242.395 266.537 C 242.617 266.829,265.157 267.018,265.897 266.734 C 266.145 266.639,266.167 255.917,266.167 133.316 L 266.167 0.000 254.167 0.000 L 242.167 0.000 242.172 133.125 M266.613 266.609 C 266.551 266.671,266.500 296.710,266.500 333.361 L 266.500 400.000 277.917 400.000 L 289.333 400.000 289.333 373.083 L 289.333 346.167 329.383 346.167 C 358.011 346.167,369.485 346.115,369.615 345.985 C 369.714 345.886,370.161 345.767,370.606 345.721 C 371.052 345.675,371.442 345.570,371.472 345.486 C 371.503 345.402,371.677 345.333,371.859 345.333 C 372.041 345.333,372.296 345.228,372.426 345.098 C 372.555 344.969,372.812 344.903,372.997 344.951 C 373.186 345.000,373.333 344.957,373.333 344.853 C 373.333 344.750,373.483 344.667,373.667 344.667 C 373.850 344.667,374.000 344.587,374.000 344.490 C 374.000 344.393,374.079 344.362,374.175 344.422 C 374.271 344.481,374.590 344.421,374.883 344.287 C 375.177 344.154,375.655 343.944,375.946 343.820 C 376.238 343.697,376.449 343.552,376.416 343.499 C 376.383 343.446,376.519 343.390,376.717 343.375 C 376.916 343.360,377.102 343.278,377.131 343.192 C 377.159 343.106,377.329 343.074,377.508 343.120 C 377.730 343.178,377.833 343.121,377.833 342.941 C 377.833 342.795,377.929 342.714,378.046 342.759 C 378.164 342.804,378.407 342.721,378.588 342.575 C 378.769 342.428,378.811 342.363,378.683 342.430 C 378.532 342.508,378.490 342.485,378.563 342.366 C 378.626 342.265,378.787 342.223,378.921 342.275 C 379.056 342.327,379.209 342.250,379.266 342.102 C 379.322 341.955,379.429 341.873,379.503 341.918 C 379.660 342.016,380.664 341.475,380.666 341.292 C 380.666 341.223,380.779 341.167,380.917 341.167 C 381.054 341.167,381.167 341.092,381.167 341.000 C 381.167 340.908,381.279 340.833,381.417 340.833 C 381.554 340.833,381.817 340.683,382.000 340.500 C 382.183 340.317,382.379 340.178,382.434 340.191 C 382.642 340.241,383.145 339.766,383.049 339.611 C 382.994 339.521,383.026 339.497,383.121 339.555 C 383.322 339.680,384.013 339.184,384.812 338.342 C 385.120 338.016,385.322 337.844,385.260 337.958 C 385.198 338.073,385.226 338.167,385.323 338.167 C 385.488 338.167,385.571 337.930,385.516 337.613 C 385.502 337.537,385.569 337.523,385.664 337.582 C 385.885 337.719,386.387 337.222,386.251 337.001 C 386.158 336.851,386.374 336.761,386.707 336.813 C 386.934 336.849,387.484 336.276,387.382 336.111 C 387.327 336.022,387.357 335.995,387.448 336.051 C 387.539 336.108,387.869 335.876,388.182 335.536 L 388.750 334.917 388.167 335.417 L 387.583 335.916 388.151 335.298 C 388.464 334.958,388.773 334.713,388.838 334.753 C 388.903 334.793,389.135 334.591,389.353 334.303 C 389.571 334.016,389.843 333.686,389.957 333.570 C 390.122 333.403,390.122 333.343,389.957 333.277 C 389.838 333.228,389.876 333.187,390.049 333.180 C 390.483 333.161,391.062 332.571,390.908 332.304 C 390.837 332.183,390.841 332.139,390.917 332.207 C 391.042 332.321,391.579 331.728,391.582 331.472 C 391.583 331.411,391.652 331.299,391.735 331.222 C 391.825 331.140,391.831 331.179,391.751 331.317 C 391.660 331.474,391.678 331.513,391.807 331.433 C 391.912 331.368,392.086 331.150,392.193 330.949 C 392.358 330.639,392.351 330.609,392.144 330.750 C 392.011 330.842,392.054 330.775,392.242 330.603 C 392.430 330.430,392.563 330.219,392.538 330.132 C 392.512 330.046,392.565 330.020,392.654 330.076 C 392.841 330.191,393.209 329.598,393.050 329.439 C 392.992 329.381,393.077 329.333,393.240 329.333 C 393.434 329.333,393.503 329.248,393.440 329.083 C 393.381 328.931,393.439 328.833,393.589 328.833 C 393.723 328.833,393.843 328.721,393.854 328.583 C 393.893 328.114,393.917 328.059,394.210 327.766 C 394.371 327.605,394.459 327.402,394.406 327.316 C 394.352 327.229,394.408 327.179,394.529 327.204 C 394.651 327.229,394.750 327.137,394.750 327.000 C 394.750 326.862,394.855 326.668,394.984 326.567 C 395.112 326.466,395.164 326.298,395.099 326.192 C 395.034 326.086,395.051 326.000,395.138 326.000 C 395.384 326.000,395.875 325.156,395.875 324.734 C 395.875 324.524,395.986 324.310,396.121 324.258 C 396.262 324.205,396.325 324.053,396.269 323.907 C 396.215 323.765,396.237 323.690,396.318 323.740 C 396.507 323.857,396.702 323.359,396.558 323.126 C 396.494 323.021,396.528 322.997,396.641 323.067 C 396.762 323.142,396.833 323.064,396.833 322.857 C 396.833 322.676,396.904 322.503,396.990 322.472 C 397.076 322.442,397.172 322.219,397.204 321.977 C 397.236 321.735,397.361 321.417,397.483 321.271 C 397.605 321.124,397.660 320.891,397.607 320.752 C 397.554 320.613,397.564 320.499,397.630 320.499 C 397.810 320.497,398.167 319.652,398.167 319.227 C 398.167 319.021,398.244 318.805,398.338 318.747 C 398.432 318.689,398.488 318.441,398.463 318.196 C 398.431 317.892,398.489 317.765,398.643 317.798 C 398.812 317.833,398.853 317.677,398.807 317.187 C 398.770 316.803,398.809 316.568,398.900 316.625 C 398.987 316.678,399.010 316.600,398.952 316.449 C 398.895 316.300,398.918 316.134,399.003 316.082 C 399.769 315.608,399.888 314.313,399.898 306.333 C 399.907 298.969,399.792 297.133,399.337 297.414 C 399.261 297.462,399.240 297.339,399.291 297.142 C 399.350 296.919,399.286 296.711,399.122 296.591 C 398.978 296.486,398.865 296.290,398.873 296.158 C 398.920 295.290,398.814 294.833,398.565 294.833 C 398.364 294.833,398.323 294.732,398.399 294.427 C 398.455 294.203,398.426 293.974,398.334 293.917 C 398.242 293.860,398.167 293.602,398.167 293.344 C 398.167 293.086,398.055 292.781,397.919 292.668 C 397.782 292.555,397.711 292.396,397.762 292.314 C 397.812 292.233,397.781 292.167,397.692 292.167 C 397.604 292.167,397.573 292.005,397.625 291.808 C 397.680 291.599,397.621 291.374,397.484 291.267 C 397.355 291.166,397.229 290.896,397.203 290.667 C 397.178 290.438,397.084 290.225,396.995 290.194 C 396.906 290.164,396.833 290.002,396.833 289.835 C 396.833 289.458,396.157 288.167,395.959 288.167 C 395.879 288.167,395.856 288.098,395.907 288.015 C 396.051 287.783,395.822 287.321,395.623 287.443 C 395.527 287.503,395.492 287.481,395.546 287.394 C 395.684 287.170,395.162 286.156,394.668 285.688 C 394.438 285.470,394.383 285.387,394.545 285.503 C 394.798 285.683,394.826 285.674,394.736 285.440 C 394.678 285.290,394.529 285.167,394.404 285.167 C 394.261 285.167,394.216 285.064,394.284 284.889 C 394.355 284.703,394.326 284.651,394.195 284.732 C 394.072 284.808,394.000 284.736,394.000 284.539 C 394.000 284.126,392.931 282.629,392.752 282.791 C 392.676 282.860,392.665 282.826,392.729 282.715 C 392.796 282.598,392.614 282.289,392.297 281.979 C 391.996 281.686,391.844 281.499,391.958 281.566 C 392.300 281.763,392.197 281.545,391.675 280.964 C 391.405 280.663,391.049 280.263,390.884 280.075 C 390.719 279.888,390.658 279.850,390.750 279.992 C 390.894 280.214,390.878 280.219,390.635 280.029 C 390.480 279.908,390.394 279.702,390.444 279.571 C 390.526 279.357,390.321 279.253,389.946 279.318 C 389.870 279.331,389.856 279.264,389.915 279.170 C 389.973 279.075,389.923 278.895,389.802 278.769 C 389.682 278.643,389.144 278.081,388.607 277.521 C 388.071 276.961,387.553 276.551,387.457 276.610 C 387.361 276.670,387.327 276.645,387.382 276.557 C 387.484 276.392,386.097 275.083,385.820 275.083 C 385.736 275.083,385.669 275.024,385.673 274.952 C 385.684 274.709,385.171 274.311,384.990 274.423 C 384.891 274.484,384.771 274.380,384.721 274.189 C 384.671 273.999,384.489 273.799,384.315 273.744 C 384.142 273.689,384.000 273.574,384.000 273.489 C 384.000 273.403,383.894 273.333,383.764 273.333 C 383.634 273.333,383.501 273.254,383.469 273.158 C 383.437 273.061,383.283 272.963,383.127 272.940 C 382.971 272.917,382.785 272.834,382.713 272.756 C 382.642 272.677,382.696 272.668,382.833 272.736 C 382.971 272.803,382.941 272.742,382.767 272.601 C 382.593 272.460,382.395 272.379,382.326 272.421 C 382.258 272.463,382.157 272.381,382.102 272.238 C 382.047 272.096,381.927 272.026,381.835 272.083 C 381.742 272.140,381.667 272.061,381.667 271.909 C 381.667 271.730,381.577 271.665,381.417 271.727 C 381.261 271.787,381.167 271.726,381.167 271.564 C 381.167 271.422,381.073 271.338,380.958 271.377 C 380.844 271.416,380.637 271.328,380.500 271.182 C 380.178 270.840,379.167 270.276,379.167 270.439 C 379.167 270.508,379.073 270.438,378.958 270.285 C 378.844 270.132,378.575 269.981,378.361 269.949 C 378.148 269.918,377.917 269.801,377.848 269.690 C 377.779 269.579,377.598 269.537,377.445 269.596 C 377.256 269.668,377.167 269.616,377.167 269.434 C 377.167 269.287,377.052 269.167,376.911 269.167 C 376.770 269.167,376.479 269.051,376.264 268.910 C 376.048 268.769,375.807 268.669,375.728 268.687 C 375.520 268.734,374.963 268.489,374.631 268.204 C 374.474 268.070,374.227 268.005,374.081 268.061 C 373.914 268.125,373.858 268.096,373.929 267.980 C 374.004 267.858,373.924 267.835,373.688 267.910 C 373.422 267.994,373.333 267.952,373.333 267.742 C 373.333 267.526,373.220 267.479,372.833 267.536 C 372.558 267.576,372.333 267.547,372.333 267.471 C 372.333 267.395,372.146 267.333,371.917 267.333 C 371.688 267.333,371.500 267.258,371.500 267.167 C 371.500 267.075,371.328 267.000,371.117 267.000 C 370.906 267.000,370.640 266.906,370.525 266.792 C 370.297 266.564,266.840 266.382,266.613 266.609 M0.000 308.667 L 0.000 333.167 9.036 333.167 C 19.937 333.167,23.359 332.942,27.083 331.984 C 29.292 331.415,32.978 329.801,33.798 329.042 C 33.922 328.927,34.094 328.833,34.180 328.833 C 34.323 328.833,36.192 327.130,37.382 325.917 C 38.421 324.856,40.987 320.410,40.997 319.653 C 40.998 319.508,41.056 319.333,41.125 319.264 C 41.194 319.195,41.250 319.089,41.251 319.028 C 41.251 318.967,41.338 318.617,41.445 318.250 C 41.847 316.870,41.994 316.217,42.159 315.083 C 42.252 314.442,42.404 313.423,42.497 312.820 C 42.707 311.463,42.720 305.804,42.517 304.717 C 42.435 304.277,42.276 303.392,42.164 302.750 C 41.896 301.214,41.617 300.137,41.170 298.917 C 40.969 298.367,40.763 297.767,40.712 297.583 C 40.661 297.400,40.536 297.137,40.435 297.000 C 40.333 296.862,40.065 296.375,39.840 295.917 C 37.402 290.964,31.118 285.782,26.917 285.260 C 26.733 285.237,26.396 285.155,26.167 285.078 C 25.938 285.000,25.675 284.930,25.583 284.921 C 25.492 284.913,25.004 284.818,24.500 284.710 C 22.296 284.240,20.391 284.166,10.375 284.166 L 0.000 284.167 0.000 308.667 M91.667 308.667 L 91.667 333.167 97.083 333.167 L 102.500 333.167 102.500 331.500 C 102.500 330.500,102.567 329.833,102.667 329.833 C 102.758 329.833,102.833 329.913,102.833 330.011 C 102.833 330.333,105.134 332.429,105.543 332.479 C 105.613 332.488,105.842 332.607,106.052 332.745 C 106.471 333.019,107.900 333.545,109.333 333.953 C 111.090 334.453,116.853 334.271,118.417 333.667 C 118.600 333.596,119.087 333.441,119.500 333.322 C 122.392 332.490,125.511 330.171,127.757 327.182 C 129.388 325.012,130.476 322.625,130.991 320.083 C 131.103 319.533,131.263 318.769,131.347 318.385 C 132.110 314.897,131.217 308.236,129.532 304.846 C 128.630 303.031,128.473 302.764,128.225 302.617 C 128.101 302.543,128.000 302.412,128.000 302.324 C 128.000 301.016,121.958 296.672,119.083 295.913 C 118.808 295.841,118.508 295.761,118.417 295.737 C 115.834 295.057,112.632 294.821,110.814 295.175 C 110.321 295.271,109.729 295.377,109.500 295.410 C 109.271 295.443,108.858 295.557,108.583 295.664 C 108.308 295.770,108.046 295.855,108.000 295.852 C 107.545 295.828,105.489 296.755,105.361 297.042 C 105.331 297.110,105.235 297.167,105.150 297.167 C 105.064 297.167,104.564 297.504,104.039 297.916 L 103.083 298.666 103.040 291.416 L 102.996 284.167 97.332 284.167 L 91.667 284.167 91.667 308.667 M185.833 290.250 L 185.833 296.333 183.083 296.333 L 180.333 296.333 180.333 300.583 L 180.333 304.833 183.083 304.833 L 185.833 304.833 185.833 319.000 L 185.833 333.167 191.500 333.167 L 197.167 333.167 197.167 319.004 L 197.167 304.842 199.792 304.796 L 202.417 304.750 202.461 300.542 L 202.506 296.333 199.836 296.333 L 197.167 296.333 197.167 290.250 L 197.167 284.167 191.500 284.167 L 185.833 284.167 185.833 290.250 M62.917 295.362 C 62.092 295.540,61.304 295.705,61.167 295.730 C 60.529 295.844,60.049 296.019,58.583 296.677 C 57.733 297.059,55.900 298.115,55.564 298.416 C 54.905 299.007,54.481 299.333,54.371 299.333 C 54.218 299.333,51.941 301.753,50.999 302.917 C 48.074 306.529,46.384 313.734,47.424 318.156 C 47.565 318.758,47.760 319.587,47.857 320.000 C 48.074 320.928,48.282 321.546,48.686 322.457 C 48.859 322.845,49.000 323.195,49.000 323.234 C 49.000 323.331,50.376 325.730,50.491 325.833 C 50.542 325.879,51.028 326.442,51.570 327.083 C 52.560 328.254,54.061 329.772,54.537 330.083 C 54.676 330.175,55.231 330.559,55.770 330.936 C 56.309 331.314,56.825 331.638,56.917 331.656 C 57.008 331.675,57.143 331.798,57.217 331.929 C 57.290 332.059,57.441 332.167,57.552 332.167 C 57.664 332.167,58.016 332.306,58.336 332.475 C 58.655 332.645,59.217 332.880,59.583 332.997 C 59.950 333.114,60.325 333.263,60.417 333.327 C 60.508 333.391,61.033 333.538,61.583 333.652 C 62.133 333.767,62.898 333.930,63.282 334.014 C 67.693 334.979,73.914 333.524,77.825 330.612 C 79.840 329.111,82.989 325.742,82.842 325.245 C 82.821 325.176,82.905 325.059,83.027 324.983 C 83.150 324.907,83.253 324.787,83.256 324.714 C 83.263 324.546,83.683 323.776,83.826 323.667 C 83.956 323.568,84.574 322.243,84.739 321.708 L 84.856 321.333 79.152 321.333 L 73.449 321.333 72.516 322.179 C 70.836 323.703,70.576 323.865,68.937 324.415 C 65.469 325.579,60.921 324.036,59.517 321.219 C 59.297 320.778,59.041 320.267,58.948 320.083 C 58.855 319.900,58.758 319.600,58.733 319.417 C 58.707 319.233,58.618 318.858,58.534 318.583 L 58.380 318.083 72.092 318.127 L 85.803 318.170 86.007 316.961 C 86.560 313.680,85.244 307.359,83.479 304.815 C 83.313 304.575,83.224 304.331,83.283 304.273 C 83.341 304.214,83.301 304.167,83.194 304.167 C 83.087 304.167,83.000 304.073,82.999 303.958 C 82.996 303.477,79.380 299.481,78.359 298.832 C 78.145 298.695,77.770 298.415,77.526 298.209 C 77.283 298.002,76.996 297.834,76.889 297.834 C 76.782 297.833,76.669 297.772,76.639 297.698 C 76.591 297.582,74.628 296.594,73.583 296.159 C 73.167 295.986,72.496 295.786,72.167 295.737 C 72.029 295.717,71.096 295.542,70.093 295.350 C 67.763 294.903,65.026 294.908,62.917 295.362 M151.833 295.116 C 151.604 295.154,150.854 295.303,150.167 295.447 C 149.479 295.591,148.804 295.725,148.667 295.747 C 147.689 295.897,144.272 297.501,143.833 298.014 C 143.787 298.068,143.629 298.180,143.481 298.264 C 142.975 298.551,141.956 299.416,141.240 300.167 C 140.016 301.452,139.676 301.876,138.769 303.250 C 137.944 304.502,137.757 304.844,137.676 305.250 C 137.658 305.342,137.549 305.529,137.435 305.667 C 136.825 306.401,135.930 309.964,135.657 312.750 C 135.314 316.243,136.345 322.525,137.488 323.902 C 137.609 324.048,137.649 324.167,137.578 324.167 C 137.507 324.167,137.584 324.317,137.750 324.500 C 137.916 324.683,137.991 324.833,137.917 324.833 C 137.842 324.833,137.896 324.965,138.036 325.125 C 138.175 325.285,138.318 325.507,138.353 325.616 C 138.584 326.343,141.206 329.528,142.099 330.167 C 142.291 330.304,142.954 330.792,143.573 331.250 C 144.192 331.708,144.721 332.046,144.748 332.000 C 144.776 331.954,144.956 332.060,145.149 332.234 C 145.342 332.409,145.500 332.491,145.500 332.417 C 145.500 332.342,145.631 332.394,145.792 332.532 C 147.551 334.040,154.684 334.781,158.262 333.828 C 160.034 333.356,161.667 332.704,161.667 332.468 C 161.667 332.394,161.723 332.350,161.792 332.370 C 162.115 332.466,163.733 331.048,164.534 329.967 C 164.808 329.597,164.819 329.647,164.826 331.375 L 164.833 333.167 170.417 333.167 L 176.000 333.167 176.000 314.750 L 176.000 296.333 170.417 296.333 L 164.833 296.333 164.833 298.125 L 164.832 299.917 164.520 299.417 C 163.992 298.572,161.194 296.333,160.665 296.333 C 160.572 296.333,160.365 296.264,160.206 296.179 C 159.801 295.963,158.333 295.500,157.833 295.430 C 157.604 295.398,157.013 295.289,156.519 295.186 C 155.667 295.009,152.727 294.965,151.833 295.116 M221.833 295.116 C 221.604 295.154,220.854 295.303,220.167 295.447 C 219.479 295.591,218.804 295.725,218.667 295.747 C 218.115 295.832,217.435 296.061,216.695 296.412 C 216.267 296.615,215.673 296.886,215.375 297.015 C 215.077 297.143,214.833 297.305,214.833 297.374 C 214.833 297.443,214.755 297.500,214.660 297.500 C 213.997 297.500,211.211 299.858,209.287 302.048 C 205.925 305.874,203.975 312.563,204.851 317.261 C 204.953 317.805,205.055 318.438,205.079 318.667 C 205.304 320.834,207.204 324.949,208.773 326.667 C 209.066 326.987,209.480 327.475,209.692 327.750 C 210.460 328.744,211.616 329.772,213.167 330.838 C 213.762 331.248,214.287 331.626,214.333 331.679 C 214.438 331.799,214.881 331.964,215.024 331.937 C 215.083 331.926,215.277 332.048,215.454 332.209 C 215.632 332.369,215.817 332.461,215.865 332.413 C 215.913 332.365,216.047 332.440,216.163 332.579 C 216.279 332.719,216.511 332.833,216.677 332.833 C 216.844 332.833,217.021 332.899,217.071 332.980 C 217.121 333.061,217.332 333.168,217.539 333.219 C 217.747 333.269,218.217 333.390,218.583 333.488 C 221.364 334.228,225.675 334.427,228.071 333.925 C 229.541 333.618,231.829 332.844,232.208 332.526 C 232.369 332.392,232.500 332.329,232.500 332.388 C 232.500 332.493,234.010 331.704,234.167 331.516 C 234.213 331.462,234.625 331.158,235.083 330.842 C 236.806 329.654,238.215 328.283,239.667 326.384 C 240.204 325.681,241.088 324.273,241.059 324.167 C 241.047 324.121,241.169 323.896,241.331 323.667 C 241.676 323.178,242.333 321.763,242.333 321.509 C 242.333 321.389,240.515 321.333,236.618 321.333 L 230.903 321.333 230.160 322.099 C 227.525 324.814,223.782 325.564,220.378 324.059 C 220.082 323.928,219.796 323.829,219.743 323.839 C 219.349 323.917,216.949 321.512,216.911 321.000 C 216.908 320.954,216.816 320.757,216.708 320.563 C 216.600 320.368,216.436 319.875,216.344 319.466 C 216.253 319.058,216.130 318.599,216.072 318.446 C 215.973 318.189,216.967 318.165,229.691 318.126 L 243.417 318.083 243.470 315.333 C 243.521 312.714,243.377 311.054,242.972 309.583 C 242.195 306.759,240.880 304.038,239.625 302.655 C 239.465 302.478,239.332 302.277,239.331 302.208 C 239.330 302.140,238.580 301.338,237.665 300.427 C 236.749 299.517,236.000 298.828,236.000 298.898 C 236.000 298.967,235.882 298.906,235.738 298.761 C 235.285 298.308,234.115 297.555,233.249 297.159 C 232.791 296.950,232.304 296.690,232.167 296.583 C 231.941 296.406,230.930 296.079,229.333 295.667 C 227.095 295.089,223.543 294.828,221.833 295.116 M20.897 295.511 C 22.008 295.798,22.728 296.013,23.083 296.163 C 23.267 296.240,23.529 296.347,23.667 296.400 C 23.960 296.515,24.491 296.847,24.757 297.083 C 24.860 297.175,25.159 297.400,25.421 297.583 C 26.171 298.109,27.218 299.230,27.619 299.937 C 28.430 301.368,28.834 302.167,28.747 302.167 C 28.696 302.167,28.747 302.335,28.859 302.542 C 29.680 304.052,29.975 310.311,29.352 313.000 C 29.256 313.412,29.143 313.914,29.101 314.114 C 29.058 314.314,28.940 314.633,28.839 314.823 C 28.738 315.012,28.696 315.167,28.747 315.167 C 28.859 315.167,28.005 316.883,27.835 317.000 C 27.768 317.046,27.597 317.308,27.456 317.583 C 27.026 318.418,24.986 320.317,24.635 320.208 C 24.561 320.185,24.500 320.223,24.500 320.293 C 24.500 320.362,24.256 320.517,23.958 320.637 C 23.660 320.757,23.272 320.934,23.095 321.031 C 21.995 321.632,19.297 321.993,15.875 321.997 L 13.000 322.000 13.000 308.667 L 13.000 295.333 16.606 295.333 C 18.614 295.333,20.515 295.412,20.897 295.511 M69.583 304.920 C 71.354 305.472,72.458 306.236,73.295 307.490 C 73.844 308.313,74.664 310.038,74.666 310.375 C 74.666 310.444,71.067 310.500,66.667 310.500 C 57.467 310.500,58.239 310.676,59.176 308.788 C 60.987 305.139,65.229 303.562,69.583 304.920 M226.083 304.679 C 229.074 305.176,231.421 307.280,232.066 310.042 L 232.173 310.500 224.181 310.500 L 216.190 310.500 216.356 309.958 C 216.447 309.660,216.537 309.342,216.556 309.250 C 216.648 308.810,217.057 308.000,217.187 308.000 C 217.267 308.000,217.333 307.917,217.333 307.816 C 217.333 306.590,220.576 304.778,223.250 304.511 C 224.360 304.399,224.428 304.403,226.083 304.679 M113.528 305.769 C 116.119 306.431,118.611 308.617,119.490 311.000 C 119.609 311.321,119.800 311.808,119.915 312.083 C 120.100 312.525,120.196 313.323,120.225 314.667 C 120.265 316.496,119.373 319.272,118.426 320.268 C 118.329 320.370,118.056 320.670,117.819 320.935 C 110.737 328.841,98.696 319.482,103.850 310.078 C 104.150 309.531,104.494 308.984,104.614 308.863 C 104.735 308.742,104.833 308.581,104.833 308.506 C 104.833 308.297,107.162 306.592,107.917 306.248 C 109.614 305.475,111.685 305.299,113.528 305.769 M157.867 305.732 C 158.900 306.004,160.159 306.494,160.464 306.742 C 160.582 306.838,160.783 307.010,160.911 307.125 C 161.038 307.240,161.186 307.333,161.238 307.333 C 161.381 307.333,162.522 308.513,163.026 309.182 C 165.223 312.099,165.303 316.818,163.208 319.917 C 162.161 321.467,159.985 323.153,158.693 323.414 C 158.541 323.445,158.206 323.552,157.947 323.652 C 157.343 323.886,154.247 323.888,153.812 323.655 C 153.628 323.557,153.314 323.446,153.114 323.408 C 152.762 323.342,151.336 322.678,151.167 322.501 C 151.121 322.454,150.744 322.159,150.329 321.847 C 142.855 316.217,148.866 303.365,157.867 305.732 M0.793 374.500 L 0.750 399.000 6.958 399.000 L 13.167 399.000 13.167 391.360 L 13.167 383.720 18.125 383.617 C 20.852 383.560,23.496 383.430,24.000 383.328 C 26.166 382.889,27.817 382.426,28.750 381.994 C 29.300 381.740,29.817 381.532,29.898 381.530 C 29.979 381.529,30.108 381.428,30.184 381.306 C 30.259 381.183,30.387 381.083,30.467 381.083 C 30.699 381.083,33.195 379.099,33.789 378.443 C 35.322 376.751,36.788 373.656,37.513 370.583 C 37.965 368.669,37.847 363.430,37.307 361.417 C 36.986 360.219,36.141 358.411,35.298 357.113 C 34.951 356.580,34.667 356.110,34.667 356.069 C 34.667 355.506,30.607 352.210,29.461 351.842 C 29.118 351.732,28.795 351.573,28.742 351.488 C 28.690 351.403,28.468 351.333,28.250 351.333 C 28.032 351.333,27.813 351.268,27.764 351.189 C 27.715 351.110,27.429 350.998,27.129 350.940 C 26.829 350.883,26.246 350.761,25.833 350.670 C 23.275 350.106,21.068 350.007,10.959 350.003 L 0.836 350.000 0.793 374.500 M81.626 374.500 L 81.583 399.000 87.292 399.000 L 93.000 399.000 93.000 374.500 L 93.000 350.000 87.334 350.000 L 81.669 350.000 81.626 374.500 M110.083 361.082 C 107.474 361.483,105.656 362.149,104.057 363.292 C 103.768 363.498,103.487 363.667,103.431 363.667 C 103.301 363.667,102.422 364.417,101.649 365.186 C 100.565 366.265,99.252 368.259,99.094 369.063 C 99.074 369.166,98.968 369.550,98.857 369.917 C 98.335 371.654,98.408 374.944,98.992 376.000 C 99.119 376.229,99.216 376.454,99.207 376.500 C 99.125 376.923,101.624 380.000,102.049 380.000 C 102.122 380.000,102.376 380.180,102.613 380.401 C 102.851 380.621,103.241 380.900,103.481 381.020 C 103.721 381.140,104.123 381.377,104.375 381.547 C 104.627 381.717,104.833 381.812,104.833 381.758 C 104.833 381.704,105.134 381.813,105.501 382.001 C 105.869 382.188,106.712 382.531,107.376 382.763 C 108.040 382.996,108.733 383.249,108.917 383.326 C 109.100 383.403,109.513 383.557,109.833 383.668 C 110.154 383.779,110.867 384.043,111.417 384.255 C 112.793 384.784,113.051 384.877,113.292 384.927 C 114.784 385.238,116.592 386.803,116.761 387.931 C 117.363 391.944,110.268 392.373,109.422 388.375 L 109.307 387.833 103.732 387.833 C 97.371 387.833,97.846 387.695,98.231 389.440 C 98.620 391.198,98.771 391.708,99.062 392.250 C 99.210 392.525,99.332 392.844,99.332 392.958 C 99.333 393.073,99.408 393.167,99.500 393.167 C 99.592 393.167,99.667 393.274,99.667 393.405 C 99.667 393.536,99.763 393.742,99.880 393.863 C 99.998 393.984,100.274 394.346,100.494 394.667 C 100.985 395.385,103.166 397.500,103.415 397.500 C 103.458 397.500,103.889 397.749,104.372 398.053 C 105.460 398.737,106.421 399.187,106.910 399.241 C 107.114 399.263,107.374 399.339,107.486 399.408 C 108.451 400.005,115.555 400.250,117.500 399.754 C 119.646 399.208,121.802 398.342,121.972 397.958 C 122.003 397.890,122.106 397.833,122.201 397.833 C 122.493 397.833,124.376 396.407,125.097 395.640 C 127.280 393.319,128.167 391.031,128.167 387.716 C 128.167 382.042,125.215 378.942,117.667 376.690 C 117.346 376.594,116.296 376.281,115.333 375.994 C 114.371 375.707,113.357 375.371,113.081 375.247 C 112.804 375.123,112.392 374.949,112.164 374.861 C 109.457 373.809,109.044 371.017,111.462 370.102 C 113.347 369.390,115.833 370.532,115.833 372.111 L 115.833 372.667 121.417 372.667 L 127.000 372.667 126.989 372.042 C 126.977 371.296,126.629 369.573,126.456 369.400 C 126.388 369.333,126.333 369.141,126.333 368.973 C 126.333 367.436,122.756 363.384,120.667 362.556 C 120.346 362.429,119.944 362.246,119.774 362.150 C 117.940 361.113,113.248 360.596,110.083 361.082 M147.667 361.092 C 146.033 361.342,144.462 361.745,143.766 362.092 C 143.500 362.225,143.197 362.333,143.093 362.333 C 142.899 362.333,142.258 362.649,141.083 363.322 C 140.254 363.798,138.058 365.437,137.500 365.998 C 136.254 367.249,134.560 369.279,134.167 369.992 C 130.162 377.249,130.147 384.049,134.120 391.081 C 134.231 391.278,134.513 391.645,134.745 391.895 C 134.977 392.146,135.167 392.387,135.167 392.433 C 135.167 392.656,138.330 395.930,138.339 395.715 C 138.342 395.643,138.435 395.699,138.547 395.839 C 138.659 395.980,139.012 396.277,139.333 396.498 C 139.654 396.719,139.954 396.952,140.000 397.015 C 140.163 397.238,143.693 399.000,143.977 399.000 C 144.136 399.000,144.357 399.090,144.467 399.200 C 144.577 399.310,144.667 399.345,144.667 399.277 C 144.667 399.210,144.806 399.229,144.975 399.320 C 146.555 400.166,154.642 400.256,155.958 399.442 C 156.040 399.392,156.289 399.317,156.512 399.276 C 157.074 399.172,158.365 398.656,158.667 398.415 C 158.804 398.305,159.310 398.041,159.792 397.828 C 160.273 397.615,160.667 397.379,160.667 397.304 C 160.667 397.228,160.760 397.167,160.875 397.166 C 160.990 397.166,161.284 396.998,161.529 396.791 C 161.774 396.585,162.223 396.229,162.527 396.000 C 163.280 395.432,165.190 393.502,165.772 392.721 C 166.034 392.370,166.286 392.046,166.333 392.000 C 166.572 391.765,167.654 390.000,167.559 390.000 C 167.498 390.000,167.556 389.869,167.688 389.708 C 167.993 389.336,168.594 388.196,168.742 387.708 L 168.856 387.333 163.035 387.333 L 157.214 387.333 156.395 388.125 C 155.190 389.289,154.014 390.063,153.128 390.275 C 149.198 391.215,144.870 389.869,143.718 387.350 C 143.567 387.020,143.365 386.649,143.271 386.525 C 143.176 386.401,143.082 386.214,143.062 386.108 C 143.042 386.003,142.908 385.542,142.765 385.083 C 142.621 384.625,142.503 384.194,142.502 384.125 C 142.501 384.056,148.642 384.000,156.149 384.000 C 168.441 384.000,169.808 383.974,169.899 383.736 C 170.098 383.218,169.994 378.251,169.758 377.000 C 169.041 373.199,167.675 370.221,165.509 367.737 C 165.183 367.363,164.654 366.759,164.333 366.395 C 164.012 366.031,163.112 365.270,162.333 364.703 C 161.554 364.136,160.842 363.613,160.750 363.540 C 160.582 363.407,159.378 362.815,158.000 362.188 C 155.555 361.075,150.960 360.588,147.667 361.092 M20.597 361.348 C 21.596 361.532,21.700 361.564,22.952 362.086 C 23.909 362.484,25.035 363.767,25.242 364.693 C 25.633 366.451,25.658 366.773,25.481 367.791 C 25.193 369.442,23.611 371.667,22.724 371.667 C 22.598 371.667,22.365 371.732,22.206 371.811 C 21.292 372.267,20.484 372.366,16.958 372.453 L 13.167 372.548 13.167 366.857 L 13.167 361.167 16.389 361.167 C 18.161 361.167,20.055 361.248,20.597 361.348 M39.718 375.375 C 39.798 389.539,39.780 389.223,40.675 391.583 C 41.096 392.694,42.217 394.653,42.784 395.268 C 42.986 395.487,43.113 395.667,43.068 395.667 C 42.820 395.667,45.554 397.969,45.999 398.136 C 46.137 398.187,46.325 398.324,46.417 398.439 C 47.303 399.556,54.384 400.462,57.333 399.836 C 58.445 399.601,60.167 398.966,60.167 398.793 C 60.167 398.723,60.260 398.667,60.375 398.667 C 60.638 398.666,62.667 396.806,62.667 396.565 C 62.667 396.466,62.817 396.249,63.000 396.083 C 63.331 395.784,63.333 395.792,63.333 397.391 L 63.333 399.000 68.750 399.000 L 74.167 399.000 74.167 380.583 L 74.167 362.167 68.417 362.167 L 62.667 362.167 62.667 373.272 C 62.667 385.123,62.658 385.248,61.772 386.945 C 60.270 389.818,55.090 390.588,52.708 388.290 C 52.410 388.003,52.167 387.685,52.167 387.584 C 52.167 387.483,52.073 387.306,51.958 387.192 C 51.844 387.077,51.744 386.931,51.736 386.867 C 51.728 386.802,51.678 386.637,51.625 386.500 C 51.216 385.431,51.167 384.028,51.167 373.426 L 51.167 362.167 45.405 362.167 L 39.644 362.167 39.718 375.375 M152.667 370.588 C 154.259 370.913,154.156 370.886,154.792 371.149 C 155.090 371.273,155.333 371.435,155.333 371.509 C 155.333 371.583,155.480 371.691,155.659 371.748 C 156.078 371.881,157.500 373.320,157.500 373.611 C 157.500 373.733,157.566 373.833,157.646 373.833 C 157.727 373.833,157.885 374.077,157.997 374.375 C 158.109 374.673,158.269 375.067,158.354 375.250 C 158.438 375.433,158.539 375.752,158.577 375.958 L 158.648 376.333 150.673 376.333 L 142.698 376.333 142.780 375.958 C 142.826 375.752,142.892 375.489,142.927 375.373 C 142.962 375.258,142.992 375.126,142.993 375.080 C 143.013 374.374,145.206 371.667,145.758 371.667 C 145.891 371.667,146.000 371.610,146.000 371.541 C 146.000 371.429,146.809 371.004,147.250 370.884 C 149.328 370.319,150.919 370.232,152.667 370.588 " stroke="none" fill="#0454f4" fill-rule="evenodd"></path><path id="path1" d="M0.872 118.333 C 0.872 118.654,0.906 118.785,0.948 118.625 C 0.990 118.465,0.990 118.202,0.948 118.042 C 0.906 117.881,0.872 118.013,0.872 118.333 M0.875 147.917 C 0.877 148.283,0.911 148.414,0.951 148.206 C 0.991 147.999,0.990 147.699,0.948 147.540 C 0.906 147.380,0.874 147.550,0.875 147.917 M388.158 335.292 L 387.583 335.917 388.208 335.342 C 388.552 335.026,388.833 334.745,388.833 334.717 C 388.833 334.590,388.692 334.710,388.158 335.292 M0.748 374.417 C 0.748 387.892,0.768 393.380,0.792 386.612 C 0.816 379.844,0.816 368.819,0.792 362.112 C 0.768 355.405,0.748 360.942,0.748 374.417 M81.581 374.417 C 81.581 387.892,81.601 393.380,81.625 386.612 C 81.649 379.844,81.649 368.819,81.625 362.112 C 81.601 355.405,81.581 360.942,81.581 374.417 " stroke="none" fill="#0854f4" fill-rule="evenodd"></path><path id="path2" d="M0.872 118.333 C 0.872 118.654,0.906 118.785,0.948 118.625 C 0.990 118.465,0.990 118.202,0.948 118.042 C 0.906 117.881,0.872 118.013,0.872 118.333 M0.875 147.917 C 0.877 148.283,0.911 148.414,0.951 148.206 C 0.991 147.999,0.990 147.699,0.948 147.540 C 0.906 147.380,0.874 147.550,0.875 147.917 M388.158 335.292 L 387.583 335.917 388.208 335.342 C 388.552 335.026,388.833 334.745,388.833 334.717 C 388.833 334.590,388.692 334.710,388.158 335.292 M0.748 374.417 C 0.748 387.892,0.768 393.380,0.792 386.612 C 0.816 379.844,0.816 368.819,0.792 362.112 C 0.768 355.405,0.748 360.942,0.748 374.417 M81.581 374.417 C 81.581 387.892,81.601 393.380,81.625 386.612 C 81.649 379.844,81.649 368.819,81.625 362.112 C 81.601 355.405,81.581 360.942,81.581 374.417 " stroke="none" fill="#0854f4" fill-rule="evenodd"></path><path id="path3" d="M0.872 118.333 C 0.872 118.654,0.906 118.785,0.948 118.625 C 0.990 118.465,0.990 118.202,0.948 118.042 C 0.906 117.881,0.872 118.013,0.872 118.333 M0.875 147.917 C 0.877 148.283,0.911 148.414,0.951 148.206 C 0.991 147.999,0.990 147.699,0.948 147.540 C 0.906 147.380,0.874 147.550,0.875 147.917 M388.158 335.292 L 387.583 335.917 388.208 335.342 C 388.552 335.026,388.833 334.745,388.833 334.717 C 388.833 334.590,388.692 334.710,388.158 335.292 M0.748 374.417 C 0.748 387.892,0.768 393.380,0.792 386.612 C 0.816 379.844,0.816 368.819,0.792 362.112 C 0.768 355.405,0.748 360.942,0.748 374.417 M81.581 374.417 C 81.581 387.892,81.601 393.380,81.625 386.612 C 81.649 379.844,81.649 368.819,81.625 362.112 C 81.601 355.405,81.581 360.942,81.581 374.417 " stroke="none" fill="#0854f4" fill-rule="evenodd"></path><path id="path4" d="M0.872 118.333 C 0.872 118.654,0.906 118.785,0.948 118.625 C 0.990 118.465,0.990 118.202,0.948 118.042 C 0.906 117.881,0.872 118.013,0.872 118.333 M0.875 147.917 C 0.877 148.283,0.911 148.414,0.951 148.206 C 0.991 147.999,0.990 147.699,0.948 147.540 C 0.906 147.380,0.874 147.550,0.875 147.917 M388.158 335.292 L 387.583 335.917 388.208 335.342 C 388.552 335.026,388.833 334.745,388.833 334.717 C 388.833 334.590,388.692 334.710,388.158 335.292 M0.748 374.417 C 0.748 387.892,0.768 393.380,0.792 386.612 C 0.816 379.844,0.816 368.819,0.792 362.112 C 0.768 355.405,0.748 360.942,0.748 374.417 M81.581 374.417 C 81.581 387.892,81.601 393.380,81.625 386.612 C 81.649 379.844,81.649 368.819,81.625 362.112 C 81.601 355.405,81.581 360.942,81.581 374.417 " stroke="none" fill="#0854f4" fill-rule="evenodd"></path></g></svg>